<svg version="1.1" viewBox="0.0 0.0 9.0 9.0" fill="none" stroke="none" stroke-linecap="square" stroke-miterlimit="10" xmlns:xlink="http://www.w3.org/1999/xlink" xmlns="http://www.w3.org/2000/svg"><clipPath id="p.0"><path d="m0 0l9.0 0l0 9.0l-9.0 0l0 -9.0z" clip-rule="nonzero"/></clipPath><g clip-path="url(#p.0)"><path fill="#000000" fill-opacity="0.0" d="m0 0l9.0 0l0 9.0l-9.0 0z" fill-rule="evenodd"/><path fill="#ff3535" d="m0 4.5039372l0 0c0 -2.4874558 2.0164814 -4.5039372 4.5039372 -4.5039372l0 0c1.1945181 0 2.3401122 0.47452056 3.1847644 1.3191726c0.8446522 0.84465194 1.3191729 1.990246 1.3191729 3.1847646l0 0c0 2.4874554 -2.0164819 4.5039372 -4.5039372 4.5039372l0 0c-2.4874558 0 -4.5039372 -2.0164819 -4.5039372 -4.5039372z" fill-rule="evenodd"/><path fill="#000000" d="m-0.003937008 4.5039372l0 0c0 -2.4874558 2.0164814 -4.5039372 4.5039372 -4.5039372l0 0c1.1945186 0 2.3401122 0.47452056 3.1847644 1.3191726c0.8446517 0.84465194 1.3191724 1.990246 1.3191724 3.1847646l0 0c0 2.4874554 -2.016481 4.5039372 -4.503937 4.5039372l0 0c-2.4874556 0 -4.5039372 -2.0164819 -4.5039372 -4.5039372zm0.9749222 0l0 0c0 1.9490209 1.5799937 3.529014 3.5290148 3.529014c1.9490209 0 3.5290146 -1.5799932 3.5290146 -3.529014l0 0c0 -1.9490213 -1.5799937 -3.529015 -3.5290146 -3.529015l0 0c-1.9490211 0 -3.5290148 1.5799937 -3.5290148 3.529015z" fill-rule="evenodd"/></g></svg>